<svg width="100%" height="100%" viewBox="0 0 1174 330" version="1.1" xmlns="http://www.w3.org/2000/svg" xmlns:xlink="http://www.w3.org/1999/xlink" xml:space="preserve" xmlns:serif="http://www.serif.com/" style="fill-rule:evenodd;clip-rule:evenodd;stroke-linejoin:round;stroke-miterlimit:2;fill:white">
    <g transform="matrix(1,0,0,1,-371.895,-254.928)">
        <g transform="matrix(2.3043,0,0,2.31217,415.128,-677.159)">
            <g transform="matrix(184.636,0,0,184.636,-29.1294,543.854)">
                <path d="M0.186,-0.76L0.186,-0.57C0.186,-0.559 0.186,-0.546 0.185,-0.531C0.185,-0.516 0.184,-0.497 0.182,-0.476L0.187,-0.476C0.201,-0.504 0.219,-0.524 0.239,-0.537C0.259,-0.55 0.281,-0.556 0.306,-0.556C0.356,-0.556 0.394,-0.532 0.422,-0.482C0.45,-0.433 0.464,-0.364 0.464,-0.275C0.464,-0.216 0.458,-0.165 0.445,-0.122C0.433,-0.08 0.414,-0.047 0.391,-0.024C0.367,-0.002 0.338,0.01 0.304,0.01C0.279,0.01 0.258,0.005 0.24,-0.005C0.222,-0.015 0.205,-0.033 0.187,-0.059L0.18,-0.059L0.161,-0L0.056,-0L0.056,-0.76L0.186,-0.76ZM0.262,-0.444C0.243,-0.444 0.228,-0.438 0.217,-0.426C0.205,-0.413 0.197,-0.396 0.193,-0.373C0.188,-0.35 0.186,-0.322 0.186,-0.289L0.186,-0.262C0.186,-0.206 0.192,-0.165 0.205,-0.139C0.217,-0.113 0.236,-0.1 0.263,-0.1C0.286,-0.1 0.303,-0.114 0.314,-0.143C0.326,-0.172 0.332,-0.216 0.332,-0.276C0.332,-0.332 0.326,-0.374 0.315,-0.402C0.304,-0.43 0.286,-0.444 0.262,-0.444Z" style="fill-rule:nonzero;"/>
            </g>
            <g transform="matrix(184.636,0,0,184.636,63.1886,543.854)">
                <path d="M0.452,-0.275C0.452,-0.237 0.448,-0.201 0.441,-0.167C0.433,-0.132 0.421,-0.102 0.405,-0.076C0.388,-0.049 0.367,-0.028 0.34,-0.013C0.314,0.002 0.281,0.01 0.243,0.01C0.208,0.01 0.177,0.002 0.151,-0.013C0.125,-0.028 0.103,-0.048 0.086,-0.074C0.069,-0.101 0.057,-0.131 0.049,-0.165C0.04,-0.2 0.036,-0.236 0.036,-0.275C0.036,-0.33 0.043,-0.379 0.058,-0.421C0.072,-0.464 0.095,-0.497 0.126,-0.521C0.156,-0.545 0.196,-0.557 0.245,-0.557C0.287,-0.557 0.324,-0.546 0.355,-0.524C0.386,-0.503 0.41,-0.471 0.427,-0.429C0.444,-0.387 0.452,-0.336 0.452,-0.275ZM0.168,-0.273C0.168,-0.235 0.171,-0.203 0.176,-0.178C0.181,-0.152 0.19,-0.133 0.201,-0.12C0.212,-0.107 0.227,-0.1 0.244,-0.1C0.262,-0.1 0.276,-0.107 0.287,-0.119C0.298,-0.132 0.306,-0.152 0.311,-0.178C0.316,-0.204 0.319,-0.236 0.319,-0.275C0.319,-0.313 0.316,-0.345 0.311,-0.371C0.306,-0.396 0.298,-0.415 0.287,-0.428C0.276,-0.44 0.262,-0.447 0.244,-0.447C0.217,-0.447 0.198,-0.433 0.186,-0.404C0.174,-0.376 0.168,-0.332 0.168,-0.273Z" style="fill-rule:nonzero;"/>
            </g>
            <g transform="matrix(184.636,0,0,184.636,153.253,543.854)">
                <path d="M0.246,-0.557C0.299,-0.557 0.34,-0.541 0.367,-0.508C0.395,-0.475 0.409,-0.427 0.409,-0.362L0.409,-0L0.314,-0L0.293,-0.073L0.29,-0.073C0.279,-0.055 0.267,-0.039 0.255,-0.027C0.242,-0.014 0.228,-0.005 0.212,0.001C0.196,0.007 0.177,0.01 0.156,0.01C0.125,0.01 0.101,0.002 0.082,-0.015C0.064,-0.031 0.05,-0.052 0.042,-0.078C0.033,-0.104 0.029,-0.132 0.029,-0.161C0.029,-0.218 0.045,-0.261 0.076,-0.291C0.108,-0.32 0.153,-0.336 0.211,-0.338L0.279,-0.341L0.279,-0.363C0.279,-0.393 0.274,-0.415 0.265,-0.43C0.256,-0.445 0.24,-0.452 0.219,-0.452C0.204,-0.452 0.187,-0.449 0.168,-0.443C0.149,-0.437 0.129,-0.427 0.107,-0.414L0.071,-0.511C0.096,-0.526 0.123,-0.538 0.152,-0.545C0.182,-0.553 0.213,-0.557 0.246,-0.557ZM0.279,-0.254L0.242,-0.252C0.215,-0.251 0.194,-0.243 0.18,-0.229C0.167,-0.215 0.16,-0.194 0.16,-0.167C0.16,-0.143 0.164,-0.124 0.173,-0.112C0.181,-0.1 0.193,-0.094 0.209,-0.094C0.229,-0.094 0.246,-0.104 0.259,-0.124C0.272,-0.144 0.279,-0.171 0.279,-0.204L0.279,-0.254Z" style="fill-rule:nonzero;"/>
            </g>
            <g transform="matrix(184.636,0,0,184.636,238.899,543.854)">
                <path d="M0.239,-0.104C0.248,-0.104 0.258,-0.105 0.268,-0.108C0.278,-0.11 0.289,-0.114 0.3,-0.119L0.3,-0.015C0.285,-0.007 0.27,-0.001 0.253,0.003C0.236,0.008 0.217,0.01 0.198,0.01C0.167,0.01 0.142,0.003 0.122,-0.009C0.102,-0.022 0.088,-0.041 0.079,-0.066C0.069,-0.092 0.065,-0.124 0.065,-0.163L0.065,-0.439L0.011,-0.439L0.011,-0.509L0.075,-0.543L0.106,-0.662L0.195,-0.662L0.195,-0.547L0.293,-0.547L0.293,-0.439L0.195,-0.439L0.195,-0.168C0.195,-0.146 0.198,-0.13 0.205,-0.12C0.212,-0.109 0.223,-0.104 0.239,-0.104Z" style="fill-rule:nonzero;"/>
            </g>
            <g transform="matrix(184.636,0,0,184.636,297.41,543.854)">
                <path d="M0.246,-0.557C0.299,-0.557 0.34,-0.541 0.367,-0.508C0.395,-0.475 0.409,-0.427 0.409,-0.362L0.409,-0L0.314,-0L0.293,-0.073L0.29,-0.073C0.279,-0.055 0.267,-0.039 0.255,-0.027C0.242,-0.014 0.228,-0.005 0.212,0.001C0.196,0.007 0.177,0.01 0.156,0.01C0.125,0.01 0.101,0.002 0.082,-0.015C0.064,-0.031 0.05,-0.052 0.042,-0.078C0.033,-0.104 0.029,-0.132 0.029,-0.161C0.029,-0.218 0.045,-0.261 0.076,-0.291C0.108,-0.32 0.153,-0.336 0.211,-0.338L0.279,-0.341L0.279,-0.363C0.279,-0.393 0.274,-0.415 0.265,-0.43C0.256,-0.445 0.24,-0.452 0.219,-0.452C0.204,-0.452 0.187,-0.449 0.168,-0.443C0.149,-0.437 0.129,-0.427 0.107,-0.414L0.071,-0.511C0.096,-0.526 0.123,-0.538 0.152,-0.545C0.182,-0.553 0.213,-0.557 0.246,-0.557ZM0.279,-0.254L0.242,-0.252C0.215,-0.251 0.194,-0.243 0.18,-0.229C0.167,-0.215 0.16,-0.194 0.16,-0.167C0.16,-0.143 0.164,-0.124 0.173,-0.112C0.181,-0.1 0.193,-0.094 0.209,-0.094C0.229,-0.094 0.246,-0.104 0.259,-0.124C0.272,-0.144 0.279,-0.171 0.279,-0.204L0.279,-0.254Z" style="fill-rule:nonzero;"/>
            </g>
            <g transform="matrix(184.636,0,0,184.636,383.056,543.854)">
                <path d="M0.187,-0.547L0.187,-0L0.057,-0L0.057,-0.547L0.187,-0.547ZM0.122,-0.762C0.146,-0.762 0.164,-0.756 0.176,-0.743C0.187,-0.73 0.193,-0.711 0.193,-0.687C0.193,-0.663 0.187,-0.645 0.175,-0.633C0.163,-0.62 0.146,-0.614 0.122,-0.614C0.099,-0.614 0.082,-0.62 0.069,-0.633C0.057,-0.645 0.051,-0.663 0.051,-0.687C0.051,-0.712 0.057,-0.731 0.068,-0.743C0.08,-0.756 0.098,-0.762 0.122,-0.762Z" style="fill-rule:nonzero;"/>
            </g>
            <g transform="matrix(184.636,0,0,184.636,428.133,543.854)">
                <path d="M0.294,-0.557C0.301,-0.557 0.308,-0.557 0.315,-0.555C0.322,-0.554 0.33,-0.552 0.339,-0.55L0.327,-0.411C0.321,-0.414 0.314,-0.416 0.306,-0.417C0.298,-0.417 0.29,-0.418 0.281,-0.418C0.266,-0.418 0.252,-0.415 0.241,-0.408C0.229,-0.402 0.219,-0.392 0.211,-0.38C0.203,-0.368 0.197,-0.353 0.193,-0.336C0.189,-0.319 0.187,-0.3 0.187,-0.279L0.187,-0L0.057,-0L0.057,-0.547L0.157,-0.547L0.176,-0.457L0.182,-0.457C0.189,-0.474 0.198,-0.491 0.209,-0.506C0.22,-0.521 0.232,-0.534 0.247,-0.543C0.261,-0.552 0.277,-0.557 0.294,-0.557Z" style="fill-rule:nonzero;"/>
            </g>
        </g>
    </g>
</svg>
