<?xml version="1.0" encoding="UTF-8" standalone="no"?>
<!DOCTYPE svg PUBLIC "-//W3C//DTD SVG 1.1//EN" "http://www.w3.org/Graphics/SVG/1.1/DTD/svg11.dtd">
<svg width="100%" height="100%" viewBox="0 0 801 224" version="1.1" xmlns="http://www.w3.org/2000/svg" xmlns:xlink="http://www.w3.org/1999/xlink" xml:space="preserve" xmlns:serif="http://www.serif.com/" style="fill-rule:evenodd;clip-rule:evenodd;stroke-linecap:round;stroke-linejoin:round;stroke-miterlimit:1.5;">
    <g transform="matrix(1,0,0,1,-1038.5,-1329.73)">
        <g>
            <g>
                <path d="M1783,1506L1821,1506C1827,1506 1834,1514 1834,1519L1834,1532C1834,1537 1827,1545 1822,1545L1783,1545L1783,1506L1778,1501.23L1778,1551C1778,1551 1807,1551.4 1818,1551.23C1833,1551 1839,1540.77 1839,1532L1839,1517C1839,1510 1831,1501 1819,1501C1809,1501 1778,1501.23 1778,1501.23" style="stroke:black;stroke-width:1px;"/>
                <g transform="matrix(1,0,0,1,205,0.233343)">
                    <path d="M1505,1501L1505,1506L1531,1506L1531,1551L1535,1551L1535,1506L1561,1506L1561,1501L1505,1501Z" style="stroke:black;stroke-width:1px;"/>
                </g>
                <path d="M1664,1501.23L1664,1536C1664,1542 1669,1551.23 1684,1551.23L1717,1551.23L1717,1546L1680,1546C1674,1546 1669,1540 1669,1535L1669,1501.23L1664,1501.23Z" style="stroke:black;stroke-width:1px;"/>
            </g>
            <g>
                <path d="M1568,1501.23C1568,1501.23 1591.42,1526.42 1593,1528C1595,1530 1596,1532 1596,1535L1596,1551.23L1601,1551.23L1601,1535C1601,1533 1602,1531.2 1604,1529C1606,1526.8 1630,1501 1630,1501L1621,1501L1598.5,1526.23L1576,1501L1568,1501.23Z" style="stroke:black;stroke-width:1px;"/>
                <g>
                    <path d="M1505,1501L1505,1506L1531,1506L1531,1551L1535,1551L1535,1506L1561,1506L1561,1501L1505,1501Z" style="stroke:black;stroke-width:1px;"/>
                </g>
                <g transform="matrix(1,0,0,1,96,0)">
                    <path d="M1349,1528L1386,1528C1392,1528 1396,1523 1396,1520L1396,1513C1396,1510 1393,1506 1385,1506L1349,1506L1349,1528L1343,1552.59L1349,1552.59L1349,1532L1387,1532C1397,1532 1401,1524 1401,1519L1401,1514C1401,1509 1396,1501 1387,1501L1343,1501L1343,1552.59" style="stroke:black;stroke-width:1px;"/>
                </g>
            </g>
            <g>
                <g>
                    <path d="M1349,1528L1386,1528C1392,1528 1396,1523 1396,1520L1396,1513C1396,1510 1393,1506 1385,1506L1349,1506L1349,1528L1343,1552.59L1349,1552.59L1349,1532L1387,1532C1397,1532 1401,1524 1401,1519L1401,1514C1401,1509 1396,1501 1387,1501L1343,1501L1343,1552.59" style="stroke:black;stroke-width:1px;"/>
                </g>
                <path d="M1268,1500L1274,1500L1274,1536C1274,1540 1283,1547 1291,1547L1305,1547C1313,1547 1321,1540 1321,1535L1321,1501L1326,1501L1326,1532C1326,1546 1313,1552.59 1306,1552.59L1292,1552.59C1284,1552.59 1268,1547 1268,1532L1268,1500Z" style="stroke:black;stroke-width:1px;"/>
                <path d="M1213,1500C1227.93,1500 1242.36,1497.85 1251.95,1511.39C1253.35,1513.37 1253.92,1516.67 1254,1519C1254.37,1529.97 1255.01,1538.7 1246.12,1546.38C1244.09,1548.13 1241.7,1549.49 1239.23,1550.55C1237.27,1551.39 1235.13,1551.89 1233,1552C1221.17,1552.61 1203.1,1554.66 1193.43,1544.68C1189.7,1540.82 1188.24,1536.28 1188,1531C1187.57,1521.44 1187.54,1510.25 1197.12,1504.88C1199.73,1503.41 1202.44,1502.05 1205.3,1501.17C1207.78,1500.41 1210.4,1500 1213,1500L1221,1505C1218.67,1504.92 1216.33,1504.84 1214,1505C1208.55,1505.38 1202.81,1507.39 1198.59,1510.91C1194.96,1513.93 1193.41,1517.35 1193,1522C1192.88,1523.33 1192.94,1524.67 1193,1526C1192.95,1527.33 1192.9,1528.67 1193,1530C1193.11,1531.4 1193.21,1532.83 1193.61,1534.18C1194.72,1537.96 1197.43,1540.72 1200.62,1543C1203.77,1545.24 1208.12,1546.73 1212,1547C1214.99,1547.21 1218,1547.1 1221,1547C1224.33,1547.06 1227.67,1547.11 1231,1547C1233.39,1546.92 1236.73,1546.5 1238.88,1545.22C1243.24,1542.62 1245.63,1540.53 1247.88,1536.03C1248.5,1534.78 1248.85,1533.39 1249,1532C1249.22,1530.01 1249.11,1528 1249,1526C1249.05,1524 1249.11,1522 1249,1520C1248.76,1515.46 1246.93,1513.03 1243.33,1510.16C1238.87,1506.6 1233.59,1505.41 1228,1505C1225.67,1504.83 1223.33,1504.91 1221,1505" style="stroke:black;stroke-width:1px;"/>
                <path d="M1122,1527L1161,1527C1164,1527 1170,1524 1170,1518L1170,1514C1170,1511 1168,1506 1161,1506L1122,1506L1122,1527L1117,1551L1117,1501L1164,1501C1170,1501 1175,1508 1175,1513L1175,1517C1175,1523 1170,1530 1165,1530C1165,1530 1174,1533 1174,1541L1174,1551L1169,1551L1169,1540C1169,1537 1165,1532 1162,1532L1122,1532L1122,1551L1117,1551" style="stroke:black;stroke-width:1px;"/>
                <path d="M1101,1501L1101,1506L1058,1506C1052,1506 1046,1514 1046,1519L1046,1533C1046,1540 1052,1546 1058,1546L1096,1546L1096,1527L1101,1527L1101,1551L1060,1551C1053,1551 1041,1546 1041,1534L1041,1517C1041,1509 1048,1501 1056,1501L1101,1501Z" style="stroke:black;stroke-width:1px;"/>
            </g>
            <g>
                <g transform="matrix(1,0,0,1,373,-2.27374e-13)">
                    <path d="M1313,1417L1396,1417C1391.49,1407.2 1387.03,1397.37 1382.16,1387.74C1379.69,1382.86 1376.98,1378.09 1374,1373.51C1371.07,1369.01 1367.99,1364.58 1364.45,1360.54C1359.85,1355.29 1349.2,1355.32 1344.58,1360.54C1330.33,1376.64 1321.84,1397.89 1313,1417L1247,1481C1256.81,1461.51 1266.62,1442.02 1276.62,1422.62C1288.62,1399.35 1300.22,1375.86 1313,1353C1317.66,1344.67 1325.65,1335.77 1335.17,1332.74C1343.31,1330.14 1348.38,1330.1 1356.84,1330.3C1365.91,1330.51 1370.66,1330.33 1378.72,1335.09C1385.57,1339.13 1392.12,1346.09 1396,1353C1409.03,1376.19 1421.29,1399.81 1433.62,1423.38C1443.62,1442.48 1453.31,1461.74 1463,1481L1429,1481L1411,1445L1298,1445L1280,1481L1247,1481" style="stroke:black;stroke-width:1px;"/>
                </g>
                <g>
                    <path d="M1451,1331.56L1451,1360L1526,1360L1526,1481L1557,1481L1557,1360L1632,1360L1632,1331.56L1451,1331.56Z" style="stroke:black;stroke-width:1px;"/>
                </g>
                <g>
                    <path d="M1313,1417L1396,1417C1391.49,1407.2 1387.03,1397.37 1382.16,1387.74C1379.69,1382.86 1376.98,1378.09 1374,1373.51C1371.07,1369.01 1367.99,1364.58 1364.45,1360.54C1359.85,1355.29 1349.2,1355.32 1344.58,1360.54C1330.33,1376.64 1321.84,1397.89 1313,1417L1247,1481C1256.81,1461.51 1266.62,1442.02 1276.62,1422.62C1288.62,1399.35 1300.22,1375.86 1313,1353C1317.66,1344.67 1325.65,1335.77 1335.17,1332.74C1343.31,1330.14 1348.38,1330.1 1356.84,1330.3C1365.91,1330.51 1370.66,1330.33 1378.72,1335.09C1385.57,1339.13 1392.12,1346.09 1396,1353C1409.03,1376.19 1421.29,1399.81 1433.62,1423.38C1443.62,1442.48 1453.31,1461.74 1463,1481L1429,1481L1411,1445L1298,1445L1280,1481L1247,1481" style="stroke:black;stroke-width:1px;"/>
                </g>
                <g>
                    <path d="M1231,1332L1231,1362C1231,1362 1114,1360 1100,1362C1086,1364 1071,1374 1071,1389L1071,1424C1071,1435 1081,1450 1101,1451C1121,1452 1230,1452 1230,1452L1230,1481L1096,1481C1086,1481 1039,1475.04 1039,1419L1039,1394C1039,1367 1055,1333 1097,1332C1139,1331 1231,1332 1231,1332Z" style="stroke:black;stroke-width:1px;"/>
                </g>
            </g>
        </g>
    </g>
</svg>
